<?xml version="1.0" encoding="UTF-8"?><svg xmlns="http://www.w3.org/2000/svg" xmlns:xlink="http://www.w3.org/1999/xlink" fill-opacity="1" color-rendering="auto" color-interpolation="auto" text-rendering="auto" stroke="black" stroke-linecap="square" width="700" stroke-miterlimit="10" shape-rendering="auto" stroke-opacity="1" fill="black" stroke-dasharray="none" font-weight="normal" stroke-width="1" height="291" font-family="'Dialog'" font-style="normal" stroke-linejoin="miter" font-size="12px" stroke-dashoffset="0" image-rendering="auto">
  <!--Generated by ySVG 2.6-->
  <defs id="genericDefs"/>
  <g>
    <defs id="defs1">
      <clipPath clipPathUnits="userSpaceOnUse" id="clipPath1">
        <path d="M0 0 L700 0 L700 291 L0 291 L0 0 Z"/>
      </clipPath>
      <clipPath clipPathUnits="userSpaceOnUse" id="clipPath2">
        <path d="M-130 8 L327 8 L327 197.9814 L-130 197.9814 L-130 8 Z"/>
      </clipPath>
    </defs>
    <g fill="rgb(238,136,102)" text-rendering="geometricPrecision" shape-rendering="geometricPrecision" transform="matrix(1.5317,0,0,1.5317,199.1247,-12.2538)" stroke="rgb(238,136,102)">
      <circle r="15" clip-path="url(#clipPath2)" cx="8.4806" cy="38.68" stroke="none"/>
    </g>
    <g text-rendering="geometricPrecision" stroke-miterlimit="1.45" shape-rendering="geometricPrecision" transform="matrix(1.5317,0,0,1.5317,199.1247,-12.2538)" stroke-linecap="butt">
      <circle fill="none" r="15" clip-path="url(#clipPath2)" cx="8.4806" cy="38.68"/>
    </g>
    <g fill="rgb(187,204,51)" text-rendering="geometricPrecision" shape-rendering="geometricPrecision" transform="matrix(1.5317,0,0,1.5317,199.1247,-12.2538)" stroke="rgb(187,204,51)">
      <circle r="15" clip-path="url(#clipPath2)" cx="199.1976" cy="38.68" stroke="none"/>
    </g>
    <g text-rendering="geometricPrecision" stroke-miterlimit="1.45" shape-rendering="geometricPrecision" transform="matrix(1.5317,0,0,1.5317,199.1247,-12.2538)" stroke-linecap="butt">
      <circle fill="none" r="15" clip-path="url(#clipPath2)" cx="199.1976" cy="38.68"/>
    </g>
    <g fill="rgb(119,170,221)" text-rendering="geometricPrecision" shape-rendering="geometricPrecision" transform="matrix(1.5317,0,0,1.5317,199.1247,-12.2538)" stroke="rgb(119,170,221)">
      <circle r="15" clip-path="url(#clipPath2)" cx="199.1976" cy="167.3988" stroke="none"/>
    </g>
    <g text-rendering="geometricPrecision" stroke-miterlimit="1.45" shape-rendering="geometricPrecision" transform="matrix(1.5317,0,0,1.5317,199.1247,-12.2538)" stroke-linecap="butt">
      <circle fill="none" r="15" clip-path="url(#clipPath2)" cx="199.1976" cy="167.3988"/>
    </g>
    <g fill="rgb(68,187,153)" text-rendering="geometricPrecision" shape-rendering="geometricPrecision" transform="matrix(1.5317,0,0,1.5317,199.1247,-12.2538)" stroke="rgb(68,187,153)">
      <circle r="15" clip-path="url(#clipPath2)" cx="8.4806" cy="167.3988" stroke="none"/>
    </g>
    <g text-rendering="geometricPrecision" stroke-miterlimit="1.45" shape-rendering="geometricPrecision" transform="matrix(1.5317,0,0,1.5317,199.1247,-12.2538)" stroke-linecap="butt">
      <circle fill="none" r="15" clip-path="url(#clipPath2)" cx="8.4806" cy="167.3988"/>
    </g>
    <g fill="rgb(238,221,136)" text-rendering="geometricPrecision" shape-rendering="geometricPrecision" transform="matrix(1.5317,0,0,1.5317,199.1247,-12.2538)" stroke="rgb(238,221,136)">
      <circle r="15" clip-path="url(#clipPath2)" cx="-99.56" cy="134.3596" stroke="none"/>
    </g>
    <g text-rendering="geometricPrecision" stroke-miterlimit="1.45" shape-rendering="geometricPrecision" transform="matrix(1.5317,0,0,1.5317,199.1247,-12.2538)" stroke-linecap="butt">
      <circle fill="none" r="15" clip-path="url(#clipPath2)" cx="-99.56" cy="134.3596"/>
    </g>
    <g fill="rgb(255,170,187)" text-rendering="geometricPrecision" shape-rendering="geometricPrecision" transform="matrix(1.5317,0,0,1.5317,199.1247,-12.2538)" stroke="rgb(255,170,187)">
      <circle r="15" clip-path="url(#clipPath2)" cx="-99.56" cy="84.5192" stroke="none"/>
    </g>
    <g text-rendering="geometricPrecision" stroke-miterlimit="1.45" shape-rendering="geometricPrecision" transform="matrix(1.5317,0,0,1.5317,199.1247,-12.2538)" stroke-linecap="butt">
      <circle fill="none" r="15" clip-path="url(#clipPath2)" cx="-99.56" cy="84.5192"/>
    </g>
    <g fill="rgb(170,170,0)" text-rendering="geometricPrecision" shape-rendering="geometricPrecision" transform="matrix(1.5317,0,0,1.5317,199.1247,-12.2538)" stroke="rgb(170,170,0)">
      <circle r="15" clip-path="url(#clipPath2)" cx="296.3769" cy="103.9994" stroke="none"/>
    </g>
    <g text-rendering="geometricPrecision" stroke-miterlimit="1.45" shape-rendering="geometricPrecision" transform="matrix(1.5317,0,0,1.5317,199.1247,-12.2538)" stroke-linecap="butt">
      <circle fill="none" r="15" clip-path="url(#clipPath2)" cx="296.3769" cy="103.9994"/>
      <path fill="none" d="M22.775 34.0643 L184.9408 34.0643" clip-path="url(#clipPath2)" stroke="rgb(127,127,127)"/>
      <path fill="none" d="M184.9032 43.2957 L22.7374 43.2957" clip-path="url(#clipPath2)" stroke="rgb(127,127,127)"/>
      <path fill="none" d="M20.9137 47.0714 L186.7644 159.0074" clip-path="url(#clipPath2)" stroke="rgb(127,127,127)"/>
      <path fill="none" d="M199.1976 53.68 L199.1976 152.3988" clip-path="url(#clipPath2)" stroke="rgb(127,127,127)"/>
      <path fill="none" d="M8.4806 53.68 L8.4806 152.3988" clip-path="url(#clipPath2)" stroke="rgb(127,127,127)"/>
      <path fill="none" d="M186.7644 47.0714 L20.9137 159.0074" clip-path="url(#clipPath2)" stroke="rgb(127,127,127)"/>
      <path fill="none" d="M23.4806 167.3988 L184.1976 167.3988" clip-path="url(#clipPath2)" stroke="rgb(127,127,127)"/>
      <path fill="none" d="M-0.2673 50.8502 L-86.3926 127.1218" clip-path="url(#clipPath2)" stroke="rgb(127,127,127)"/>
      <path fill="none" d="M186.8345 47.1161 L-84.562 134.0331" clip-path="url(#clipPath2)" stroke="rgb(127,127,127)"/>
      <path fill="none" d="M-5.8637 163.0123 L-85.2157 138.7461" clip-path="url(#clipPath2)" stroke="rgb(127,127,127)"/>
      <path fill="none" d="M-4.6646 45.898 L-90.8246 122.2004" clip-path="url(#clipPath2)" stroke="rgb(127,127,127)"/>
      <path fill="none" d="M-87.1969 125.9235 L184.1997 39.0065" clip-path="url(#clipPath2)" stroke="rgb(127,127,127)"/>
      <path fill="none" d="M-5.328 44.5387 L-85.7514 78.6605" clip-path="url(#clipPath2)" stroke="rgb(127,127,127)"/>
      <path fill="none" d="M184.3711 40.9549 L-84.7335 82.2443" clip-path="url(#clipPath2)" stroke="rgb(127,127,127)"/>
      <path fill="none" d="M-99.56 119.3596 L-99.56 99.5192" clip-path="url(#clipPath2)" stroke="rgb(127,127,127)"/>
      <path fill="none" d="M23.4166 37.5921 L283.3487 96.5668" clip-path="url(#clipPath2)" stroke="rgb(127,127,127)"/>
      <path fill="none" d="M212.9944 44.5964 L285.6855 93.4559" clip-path="url(#clipPath2)" stroke="rgb(127,127,127)"/>
      <path fill="none" d="M281.7279 107.2253 L23.1296 164.1729" clip-path="url(#clipPath2)" stroke="rgb(127,127,127)"/>
      <path fill="none" d="M282.5056 109.6788 L-84.962 137.856" clip-path="url(#clipPath2)" stroke="rgb(127,127,127)"/>
      <path fill="none" d="M281.3951 103.2623 L-84.5781 85.2563" clip-path="url(#clipPath2)" stroke="rgb(127,127,127)"/>
      <path fill="none" d="M283.8141 112.1954 L211.7605 159.2028" clip-path="url(#clipPath2)" stroke="rgb(127,127,127)"/>
      <path fill="none" d="M282.5802 98.083 L209.8891 49.2235" clip-path="url(#clipPath2)" stroke="rgb(127,127,127)"/>
      <path fill="none" d="M281.8289 100.4992 L-85.6397 128.6765" clip-path="url(#clipPath2)" stroke="rgb(127,127,127)"/>
      <path fill="none" d="M281.4409 105.0873 L21.5088 46.1126" clip-path="url(#clipPath2)" stroke="rgb(127,127,127)"/>
    </g>
  </g>
</svg>
